<svg id="Ebene_1" data-name="Ebene 1" xmlns="http://www.w3.org/2000/svg" viewBox="0 0 1983.88 2202.87"><defs><style>.cls-1{fill:#d6d6d6;}.cls-2{fill:#348193;}.cls-3{fill:#419bb6;}.cls-4{fill:#463c54;}.cls-5{fill:#1f0a49;}.cls-6{fill:#15603c;}.cls-7{fill:#155635;}.cls-8{fill:#494c4b;}.cls-9{fill:#5b5b5b;}.cls-10{fill:#5b605e;}.cls-11{fill:#b2aeed;}.cls-12{fill:#3535d3;}.cls-13{fill:#4545dd;}.cls-14{fill:#3abec1;}.cls-15{fill:#4949db;}.cls-16{fill:#24b1b5;}.cls-17{fill:#67cec9;}.cls-18{fill:#5abab3;}.cls-19{fill:#60cc65;}.cls-20{fill:#58af58;}.cls-21{fill:#65b765;}.cls-22{fill:#00bbc4;}.cls-23{fill:none;stroke:#5b5b5b;stroke-miterlimit:10;}.cls-24{fill:#939393;}.cls-25{fill:#666668;}.cls-26{fill:#7c8081;}.cls-27{fill:#7e7f81;}.cls-28{fill:#00d3e8;}.cls-29{fill:#7f7f7f;}.cls-30{fill:#328aba;}.cls-31{fill:#0f677f;}.cls-32{fill:#0b5362;}.cls-33{fill:#0d677f;}.cls-34{fill:#0b4751;}.cls-35{fill:#328ab8;}.cls-36{fill:#4f4f4f;}.cls-37{fill:#494949;}.cls-38{fill:#727272;}.cls-39{fill:#353535;}.cls-40{fill:#282828;}.cls-41{fill:#363636;}.cls-42{fill:#d30f0f;}</style></defs><polygon class="cls-1" points="0 1630.12 991.94 2202.86 1983.88 1630.12 991.94 1057.38 0 1630.12"/><polygon class="cls-2" points="991.94 1057.38 991.94 0 0 572.75 0 1630.12 991.94 1057.38"/><polygon class="cls-3" points="991.94 0 1983.88 572.75 1983.88 1630.12 991.94 1057.38 991.94 0"/><path class="cls-4" d="M-129.63,551.46" transform="translate(358.54 682.14)"/><polygon class="cls-5" points="228.91 1233.61 228.91 704.92 763.03 396.52 763.03 925.2 228.91 1233.61"/><polygon class="cls-6" points="228.91 704.92 228.91 660.86 763.03 352.46 763.03 396.52 228.91 704.92"/><polygon class="cls-6" points="763.03 925.2 763.03 969.26 228.91 1277.66 228.91 1233.61 763.03 925.2"/><polygon class="cls-6" points="228.91 1277.66 190.76 1299.69 190.76 682.89 228.91 660.86 228.91 881.15 228.91 925.2 228.91 1277.66"/><polygon class="cls-6" points="763.03 352.46 801.18 330.43 801.18 947.23 763.03 969.26 763.03 352.46"/><path class="cls-7" d="M-129.63,551.46" transform="translate(358.54 682.14)"/><polyline class="cls-7" points="228.91 1233.61 228.91 1189.55 763.03 881.15 763.03 925.2 231.89 1231.64"/><polyline class="cls-7" points="763.03 881.15 763.03 572.75 763.03 396.52 724.88 418.54 724.88 594.77 724.88 903.17"/><path d="M-129.63,199" transform="translate(358.54 682.14)"/><polygon class="cls-6" points="743.95 583.76 743.95 649.85 228.91 947.23 228.91 881.15 743.95 583.76"/><polygon class="cls-7" points="743.95 583.76 724.88 572.75 486.43 710.42 228.91 859.12 228.91 881.15 497.62 725.99 743.95 583.76"/><polygon class="cls-6" points="534.12 528.69 495.97 550.72 495.97 1057.38 534.12 1035.35 534.12 528.69"/><polyline class="cls-7" points="495.97 550.72 486.43 556.22 486.43 710.42 497.62 725.99"/><polygon class="cls-7" points="495.97 1057.38 486.43 1040.85 486.43 798.54 495.97 793.03 495.97 1057.38"/><polygon class="cls-8" points="76.3 1586.06 76.3 1453.89 343.36 1608.09 343.36 1740.26 76.3 1586.06"/><polygon class="cls-8" points="343.36 1740.26 362.44 1729.25 362.44 1597.08 343.36 1608.09 343.36 1740.26"/><polygon class="cls-9" points="76.3 1453.89 95.38 1442.88 362.44 1597.08 343.36 1608.09 76.3 1453.89"/><polygon class="cls-10" points="609.54 1278.17 609.54 1146 876.6 1300.2 876.6 1432.37 609.54 1278.17"/><polygon class="cls-8" points="876.6 1432.37 895.68 1421.36 895.68 1289.19 876.6 1300.2 876.6 1432.37"/><polygon class="cls-9" points="609.54 1146 628.62 1134.99 895.68 1289.19 876.6 1300.2 609.54 1146"/><path class="cls-11" d="M3.9,1003.05" transform="translate(358.54 682.14)"/><polygon class="cls-8" points="362.44 1685.19 876.6 1388.32 876.6 1432.37 362.44 1729.25 362.44 1685.19"/><polygon class="cls-12" points="362.44 1685.19 362.44 1663.16 876.6 1365.78 876.6 1388.32 362.44 1685.19"/><polygon class="cls-13" points="591.15 1530.88 343.36 1387.81 190.76 1475.92 438.68 1619.07 591.15 1530.88"/><polygon class="cls-13" points="362.44 1597.08 381.51 1586.06 190.76 1475.92 171.68 1486.93 362.44 1597.08"/><path class="cls-13" d="M23,903.92" transform="translate(358.54 682.14)"/><path class="cls-13" d="M80.13,936.93" transform="translate(358.54 682.14)"/><polygon class="cls-14" points="876.6 1365.78 609.54 1211.58 149.48 1475.92 419.67 1630.12 876.6 1365.78"/><polygon class="cls-15" points="591.15 1530.88 323.15 1376.13 149.48 1475.92 419.67 1630.12 591.15 1530.88"/><polyline class="cls-15" points="362.44 1663.16 362.44 1597.08 419.67 1630.12"/><polygon class="cls-16" points="591.15 1530.88 591.15 1553.13 876.6 1388.32 876.6 1365.78 591.15 1530.88"/><polygon class="cls-17" points="591.15 1530.88 619.52 1514.47 352.9 1360.78 323.15 1376.13 591.15 1530.88"/><polygon class="cls-18" points="591.15 1530.88 591.15 1553.13 619.52 1536.75 619.52 1514.47 591.15 1530.88"/><polygon class="cls-19" points="819.82 1332.99 667.21 1244.87 609.54 1278.17 763.03 1365.78 765.77 1364.19 819.82 1332.99"/><path class="cls-20" d="M407.23,682.05V668a70.51,70.51,0,0,1,19.45-17.71,71.28,71.28,0,0,1,19.38-8.23l15.21,8.79Z" transform="translate(358.54 682.14)"/><path class="cls-20" d="M251,596h39a290.7,290.7,0,0,1,117.2,72v14Z" transform="translate(358.54 682.14)"/><path class="cls-20" d="M354.49,622.37" transform="translate(358.54 682.14)"/><path class="cls-20" d="M426.68,650.29" transform="translate(358.54 682.14)"/><path class="cls-20" d="M293.19,606l-3.4-4.08" transform="translate(358.54 682.14)"/><polygon class="cls-21" points="670.24 1286.12 791.05 1329.22 765.77 1350.14 670.24 1286.12"/><polygon class="cls-22" points="1068.24 1101.43 991.94 1145.49 991.94 440.57 1068.24 396.52 1068.24 1101.43"/><path class="cls-23" d="M862.3,595.52" transform="translate(358.54 682.14)"/><polygon class="cls-22" points="1220.85 1277.66 1297.15 1233.61 1297.15 528.69 1220.85 572.75 1220.85 1277.66"/><path class="cls-24" d="M862.3-109.4" transform="translate(358.54 682.14)"/><polygon class="cls-25" points="1297.15 528.69 1297.15 506.66 1220.85 550.72 1220.85 572.75 1297.15 528.69"/><path class="cls-26" d="M862.3-131.43" transform="translate(358.54 682.14)"/><polygon class="cls-24" points="973.75 1134.99 991.94 1145.49 991.94 440.57 973.75 430.07 973.75 1134.99"/><polygon class="cls-27" points="1202.65 561.73 1202.65 539.7 973.75 407.53 973.75 429.56 1202.65 561.73"/><polygon class="cls-27" points="1220.85 572.75 1202.65 561.73 1202.65 539.7 1220.85 550.72 1220.85 572.75"/><polyline class="cls-28" points="1297.15 506.66 1220.85 550.72 973.75 407.53"/><polyline class="cls-28" points="973.75 407.53 1050.05 363.47 1297.15 506.66"/><polygon class="cls-24" points="1202.65 1266.65 1220.85 1277.15 1220.85 572.24 1202.65 561.73 1202.65 1266.65"/><polygon class="cls-29" points="1202.65 1266.65 1202.65 1244.62 973.75 1112.45 973.75 1134.48 1202.65 1266.65"/><polygon class="cls-29" points="1220.85 1277.15 1220.85 1255.63 1202.65 1244.62 1202.65 1266.65 1220.85 1277.15"/><polygon class="cls-25" points="1297.15 1233.61 1297.15 1211.58 1220.85 1255.63 1220.85 1277.15 1297.15 1233.61"/><path class="cls-28" d="M844.11,474.87" transform="translate(358.54 682.14)"/><polygon class="cls-28" points="1068.24 1079.4 991.94 1122.95 1202.65 1244.62 1068.24 1079.4"/><polygon class="cls-28" points="1202.65 1157.01 1202.65 1244.62 1068.24 1079.4 1202.65 1157.01"/><polygon class="cls-29" points="1202.65 1002.56 1202.65 980.53 973.75 848.36 973.75 870.39 1202.65 1002.56"/><polygon class="cls-29" points="1220.85 1013.07 1220.85 991.55 1202.65 980.53 1202.65 1002.56 1220.85 1013.07"/><polygon class="cls-25" points="1297.15 969.52 1297.15 947.49 1220.85 991.55 1220.85 1013.07 1297.15 969.52"/><polygon class="cls-28" points="1068.24 815.32 991.94 858.86 1202.65 980.53 1068.24 815.32"/><polygon class="cls-28" points="1202.65 892.93 1202.65 980.53 1068.24 815.32 1202.65 892.93"/><polygon class="cls-29" points="1202.65 914.19 1202.65 892.16 973.74 759.99 973.74 782.02 1202.65 914.19"/><polygon class="cls-29" points="1220.84 924.7 1220.84 903.18 1202.65 892.16 1202.65 914.19 1220.84 924.7"/><polygon class="cls-25" points="1297.15 881.15 1297.15 859.12 1220.84 903.18 1220.84 924.7 1297.15 881.15"/><polygon class="cls-28" points="1068.24 726.95 991.93 770.49 1202.65 892.16 1068.24 726.95"/><polygon class="cls-28" points="1202.65 804.56 1202.65 892.16 1068.24 726.95 1202.65 804.56"/><polygon class="cls-29" points="1202.65 826.07 1202.65 804.05 973.75 671.87 973.75 693.9 1202.65 826.07"/><polygon class="cls-29" points="1220.85 836.58 1220.85 815.06 1202.65 804.05 1202.65 826.07 1220.85 836.58"/><polygon class="cls-25" points="1297.15 793.03 1297.15 771 1220.85 815.06 1220.85 836.58 1297.15 793.03"/><polygon class="cls-28" points="1068.24 638.83 991.94 682.38 1202.65 804.05 1068.24 638.83"/><polygon class="cls-28" points="1202.65 716.44 1202.65 804.05 1068.24 638.83 1202.65 716.44"/><polygon class="cls-29" points="1202.65 738.22 1202.65 716.19 973.74 584.01 973.74 606.04 1202.65 738.22"/><polygon class="cls-29" points="1220.84 748.72 1220.84 727.2 1202.65 716.19 1202.65 738.22 1220.84 748.72"/><polygon class="cls-25" points="1297.15 705.17 1297.15 683.14 1220.84 727.2 1220.84 748.72 1297.15 705.17"/><polygon class="cls-28" points="1068.24 550.97 991.93 594.52 1202.65 716.19 1068.24 550.97"/><polygon class="cls-28" points="1202.65 628.58 1202.65 716.19 1068.24 550.97 1202.65 628.58"/><polygon class="cls-30" points="686.73 1762.29 839.33 1850.41 991.94 1762.29 839.33 1674.18 686.73 1762.29"/><polygon class="cls-31" points="686.73 1762.29 686.73 1784.32 839.33 1872.44 839.33 1850.41 686.73 1762.29"/><polygon class="cls-32" points="839.33 1872.44 991.94 1784.32 991.94 1762.29 839.33 1850.41 839.33 1872.44"/><polygon class="cls-33" points="874.08 1762.29 835.93 1740.26 835.93 1564.03 874.08 1586.06 874.08 1762.29"/><polyline class="cls-34" points="874.08 1586.06 912.23 1564.03 912.23 1740.26 874.08 1762.29"/><path class="cls-35" d="M518.94,881.89l-38.15,22Z" transform="translate(358.54 682.14)"/><polyline class="cls-35" points="912.23 1564.03 874.08 1542.01 835.93 1564.03"/><polyline class="cls-35" points="835.93 1564.29 874.08 1586.32 912.23 1564.29"/><path class="cls-36" d="M633.39,1256.38" transform="translate(358.54 682.14)"/><polygon class="cls-37" points="809.95 1538.74 809.95 1406.56 924.41 1472.65 924.41 1604.82 809.95 1538.74"/><path class="cls-38" d="M565.86,768.48" transform="translate(358.54 682.14)"/><path class="cls-38" d="M565.86,922.68" transform="translate(358.54 682.14)"/><polyline class="cls-38" points="809.95 1516.71 809.95 1518.51 809.95 1538.74 924.41 1604.82 924.41 1582.79"/><polyline class="cls-36" points="924.41 1604.82 943.25 1593.94 943.25 1461.77 924.41 1472.65"/><polyline class="cls-38" points="924.41 1494.68 924.41 1492.88 924.41 1472.65 809.95 1406.56 809.95 1428.59"/><polyline class="cls-38" points="924.41 1472.65 905.57 1461.77 905.57 1593.94 924.41 1604.82"/><polyline class="cls-38" points="828.79 1549.62 809.95 1538.74 809.95 1406.56 828.79 1417.44"/><path class="cls-39" d="M451.41,724.42" transform="translate(358.54 682.14)"/><path class="cls-39" d="M584.7,779.63" transform="translate(358.54 682.14)"/><path class="cls-39" d="M584.7,779.63" transform="translate(358.54 682.14)"/><path class="cls-40" d="M584.7,779.63" transform="translate(358.54 682.14)"/><polyline class="cls-41" points="943.25 1461.77 867.18 1417.58 848.1 1428.59"/><polyline class="cls-41" points="867.18 1417.58 848.1 1428.53 809.95 1406.56 848.1 1428.53 924.17 1472.72 943.25 1461.7"/><path class="cls-41" d="M508.64,735.44" transform="translate(358.54 682.14)"/><polyline class="cls-41" points="809.95 1406.6 848.1 1428.56 867.18 1417.61"/><polyline class="cls-41" points="867.18 1417.55 829.03 1395.58 809.95 1406.53"/><polygon class="cls-42" points="1568.08 984.32 1568.08 719.98 1644.38 764.03 1644.38 1028.38 1568.08 984.32"/><polygon class="cls-42" points="1701.61 973.31 1701.61 885.19 1644.38 852.15 1644.38 940.26 1701.61 973.31"/><polygon class="cls-42" points="1510.85 863.16 1510.85 775.05 1568.08 808.09 1568.08 896.21 1510.85 863.16"/></svg>